Coordinates
version=1
nRows=8
nColumns=40
inDegrees=yes

Units are S.I. units (second, meters, Newtons, ...)
If the header above contains a line with 'inDegrees', this indicates whether rotational values are in degrees (yes) or radians (no).

endheader
time	pelvis_tilt	pelvis_list	pelvis_rotation	pelvis_tx	pelvis_ty	pelvis_tz	hip_flexion_r	hip_adduction_r	hip_rotation_r	knee_angle_r	knee_angle_r_beta	ankle_angle_r	subtalar_angle_r	mtp_angle_r	hip_flexion_l	hip_adduction_l	hip_rotation_l	knee_angle_l	knee_angle_l_beta	ankle_angle_l	subtalar_angle_l	mtp_angle_l	lumbar_extension	lumbar_bending	lumbar_rotation	arm_flex_r	arm_add_r	arm_rot_r	elbow_flex_r	pro_sup_r	wrist_flex_r	wrist_dev_r	arm_flex_l	arm_add_l	arm_rot_l	elbow_flex_l	pro_sup_l	wrist_flex_l	wrist_dev_l
      8.00000000000000000000	     32.10491352163187883662	      2.75202152052666626503	   -173.19556199415308128664	      0.39722319494479502167	      0.74307165972093736084	     -0.55970163647118786887	     93.61032949163724481423	    -20.26706653461474516575	     -3.92866519897113919413	     75.84465420714856520590	      1.32373893595131186807	     15.44791371100549959294	      0.00000000000000000000	      0.00000000000000000000	     94.53938598834717765840	     -1.91024686907211616038	      1.22883598449407660524	     75.57295891246785402018	      1.31899695849695719474	     11.15520658920855012752	      0.00000000000000000000	      0.00000000000000000000	    -45.56040313080592341066	      9.18270317282152781502	      0.52290901200721595643	     62.25542508907149397146	    -17.40979432735657539411	     30.37344964968858107568	     19.29433551370303945305	     89.01617698240455922587	      0.00000000000000000000	      0.00000000000000000000	     67.88935359385025947176	    -11.54887496431132909436	     62.59866539165730614513	     19.82076654860362907584	     85.44324729167010445963	      0.00000000000000000000	      0.00000000000000000000
      8.00500000000000078160	     32.29597228508043116335	      2.88672627929698455418	   -173.14447672204218520164	      0.39743714690452519589	      0.74284715150565094888	     -0.55944907733127968719	     93.77331230002805284585	    -20.33731134919203498157	     -4.05280740321941035376	     75.80963266137230505137	      1.32312769466837809595	     15.33797374035485994170	      0.00000000000000000000	      0.00000000000000000000	     94.76492182922353890717	     -1.80164428063747417141	      1.39046413901557830428	     75.52806536103231849211	      1.31821341821149373708	     11.12387389831687301012	      0.00000000000000000000	      0.00000000000000000000	    -45.30463094416066383019	      9.36040515130530614840	      0.56851722298833762270	     62.15622357929563435164	    -17.51005059316138101622	     30.46668277684386794135	     19.45476206673049546225	     89.02818168500272122401	      0.00000000000000000000	      0.00000000000000000000	     67.71133264064469869936	    -11.41732525650128060590	     61.98079829853293176711	     19.72706331529129997193	     85.28981867336649713707	      0.00000000000000000000	      0.00000000000000000000
      8.00999999999999978684	     32.18196507010934936943	      2.79478487370727224359	   -173.18895199041932642103	      0.39709025661328078982	      0.74366634521189833862	     -0.55952287871587313983	     93.58911433885782571451	    -20.30770285661654739329	     -4.03117431926243163787	     75.72248597556387039731	      1.32160669806881991839	     15.35762181688625105380	      0.00000000000000000000	      0.00000000000000000000	     94.53746517892622591717	     -1.85711988381878145837	      1.29719059108263889968	     75.44909369210914462656	      1.31683510257298941326	     11.11215973952531932412	      0.00000000000000000000	      0.00000000000000000000	    -45.46703023372463547958	      9.28009655991676218889	      0.52183755706119072659	     62.26901734764402362998	    -17.31020888292868420422	     30.17284791821409228874	     19.20083169754938978713	     89.02442198462512124024	      0.00000000000000000000	      0.00000000000000000000	     67.76090667695784475200	    -11.53587630865127700019	     62.15235289920170913547	     19.84000435937783635154	     85.66605487556188336384	      0.00000000000000000000	      0.00000000000000000000
      8.01500000000000056843	     32.10131226245031399458	      2.81219689569143360686	   -173.07624231527208280568	      0.39682686003248468509	      0.74438780388990666292	     -0.55921254419045585138	     93.39034860651710800994	    -20.45371204393268627086	     -4.12855431362436853249	     75.63364070489917878604	      1.32005605557089555901	     15.55474771285279089739	      0.00000000000000000000	      0.00000000000000000000	     94.35302804318828862051	     -1.66409625246513215302	      1.42144694909659818904	     75.33737374054462065942	      1.31488522157802001367	     11.40542929652054304768	      0.00000000000000000000	      0.00000000000000000000	    -45.57653146129854349056	      9.42214994780220038706	      0.46347286845599661165	     62.37094617135735319380	    -17.13555663886565483267	     29.72921325323856933665	     18.96259870388921342510	     89.08364149962737599253	      0.00000000000000000000	      0.00000000000000000000	     67.06239313187195705268	    -11.34287369809818812882	     58.46664793219668609936	     20.14047973537370950226	     81.88172779978305015902	      0.00000000000000000000	      0.00000000000000000000
      8.01999999999999957367	     32.27379379904594003392	      2.74802450924214181072	   -173.22706937950673022897	      0.39698727763545865743	      0.74420862606603144229	     -0.55944537233668001353	     93.61821339855218582215	    -20.32669204870498447235	     -4.07302609132501913791	     75.60160919022791858879	      1.31949700017548132713	     15.24497874249398421398	      0.00000000000000000000	      0.00000000000000000000	     94.54718099026291611153	     -1.89833263535908991493	      1.20869110447051708590	     75.34242867527017040175	      1.31497344683245409591	     11.06261672330861856040	      0.00000000000000000000	      0.00000000000000000000	    -45.37594467784816032463	      9.25788789120081467843	      0.51449131690784233317	     62.25401236711415720038	    -17.32160058696627658037	     30.26194632144698459797	     19.24505738943670252183	     89.02095517426350568257	      0.00000000000000000000	      0.00000000000000000000	     67.66097723462956992080	    -11.57279840831071027196	     61.96324943382123962010	     19.96384116079334347660	     85.51942671883971058833	      0.00000000000000000000	      0.00000000000000000000
      8.02500000000000035527	     32.39467802508870164502	      2.82409909863385077955	   -173.32351439885434274402	      0.39704621708294940419	      0.74426424973257265805	     -0.55962367330532769572	     93.69087233373036838202	    -20.18016789927172638386	     -4.10296066592611285984	     75.52328377944928661236	      1.31812996386941705396	     15.10527114688563088407	      0.00000000000000000000	      0.00000000000000000000	     94.67513493638774946248	     -1.96569383060886759829	      1.33886883344887785974	     75.31740039734563652019	      1.31453662097656676089	     10.97651775809388041694	      0.00000000000000000000	      0.00000000000000000000	    -45.24741821067493674491	      9.25857891366494989427	      0.69913227223151930279	     62.16191001542531324731	    -17.45682417940447095361	     30.21048289870644154576	     19.37860450723931649009	     89.02863626543877728636	      0.00000000000000000000	      0.00000000000000000000	     67.54241898320871939632	    -11.24066993433831740390	     61.21518828107323884069	     19.60155882413570438416	     85.33688314238173688864	      0.00000000000000000000	      0.00000000000000000000
      8.02999999999999936051	     32.40047055764673444855	      2.55041613473615091934	   -173.31942767886178558001	      0.39688122924391278090	      0.74483555551618574331	     -0.55953528029856447468	     93.74130821700741478253	    -20.24471691596495404042	     -3.87133578826933266726	     75.48466945972185726532	      1.31745601685175572904	     15.08959041470860285017	      0.00000000000000000000	      0.00000000000000000000	     94.51567202502062059466	     -1.93620087663337048234	      1.05509292669013943211	     75.18169206929836434483	      1.31216806382976525214	     10.97231935995558416153	      0.00000000000000000000	      0.00000000000000000000	    -45.27952559115981756577	      9.04178598916247722173	      0.46958314157827379942	     62.23333928579580742735	    -17.22518459168346183219	     29.80437437277420897885	     19.12289568919055327001	     89.02708848882421932558	      0.00000000000000000000	      0.00000000000000000000	     67.55484648230537914060	    -11.45951722259403204873	     61.31962893732463726337	     19.86745665405307192941	     85.76252576359279089502	      0.00000000000000000000	      0.00000000000000000000
      8.03500000000000014211	     32.47942440165973465582	      2.42121104238398876518	   -173.44192575861134741899	      0.39686881157775188989	      0.74520049388919606947	     -0.55972591400903604075	     93.81053810922060165467	    -20.11281466939363227198	     -3.74779038783164919479	     75.37760792803854315025	      1.31558744062165366984	     15.01557500309066028876	      0.00000000000000000000	      0.00000000000000000000	     94.50347727002053943579	     -2.05396784089044404098	      0.92385976230790189945	     75.09893052708812888341	      1.31072360242416841025	     10.93720640315422265587	      0.00000000000000000000	      0.00000000000000000000	    -45.23502988312171169127	      8.85300261416849920693	      0.45566181361281177242	     62.25298771267474506885	    -17.21287647918439134287	     29.91579320868509839215	     19.09513672041536480606	     89.02639827639394809466	      0.00000000000000000000	      0.00000000000000000000	     67.50637435576049938390	    -11.48538732616530921860	     61.13130902738518557271	     19.92808881211902871655	     85.69714014852760897156	      0.00000000000000000000	      0.00000000000000000000
